<?xml version="1.0" standalone="yes"?>
<svg xmlns="http://www.w3.org/2000/svg" width="1024" height="1024">
<path style="fill:#fefefe; stroke:none;" d="M0 0L0 1024L1024 1024L1024 0L0 0z"/>
<path style="fill:#d78fa9; stroke:none;" d="M654 179L654 180L729 180L705 179L654 179z"/>
<path style="fill:#bf6398; stroke:none;" d="M729 179L729 180L761 180L729 179z"/>
<path style="fill:#bb3a7f; stroke:none;" d="M651 183L688 181L758 181L795 180C786.919 175.344 767.205 179 758 179.917C733.849 182.321 708.282 180 684 180L659 180C655.47 180 651.855 179.008 651 183z"/>
<path style="fill:#f63990; stroke:none;" d="M647 226L694 227L798 226L797 202L795 191L795 190L798 181C785.732 178.875 772.416 180.908 760 180.997C735.669 181.171 711.331 181 687 181C678.062 181 656.189 177.093 649.707 184.511C642.383 192.892 647.594 215.542 647 226z"/>
<path style="fill:#bf6398; stroke:none;" d="M796 180L796 181C809.559 190.076 805.925 212.762 804 227L805 227C805.653 225.04 806 224.446 806 227L807 227C807 213.362 812.897 184.969 796 180z"/>
<path style="fill:#803159; stroke:none;" d="M645 227L646 227C646 212.085 643.141 195.191 651 182C639.922 188.355 645 215.758 645 227z"/>
<path style="fill:#f863ad; stroke:none;" d="M797 182L795 190L795 191L796.616 202L797 227C811.577 225.708 808.23 187.084 797 182z"/>
<path style="fill:#bb3a7f; stroke:none;" d="M647 187L646 226L647 226L647 187z"/>
<path style="fill:#f0d0da; stroke:none;" d="M644 191L644 228L645 228L644 191z"/>
<path style="fill:#ba74d0; stroke:none;" d="M805 225L796 227L796 228L807 228L805 225z"/>
<path style="fill:#8736a1; stroke:none;" d="M646 226L657 228L685 228L796 228L796 227L698 227L646 226z"/>
<path style="fill:#d555ae; stroke:none;" d="M720 226L720 227L797 227L772 226L720 226z"/>
<path style="fill:#5a58c7; stroke:none;" d="M645 227L657 229L687 229L807 230L807 228L699 228L645 227z"/>
<path style="fill:#6aa4c8; stroke:none;" d="M276 228L276 229L645 229L610 228L534 228L276 228z"/>
<path style="fill:#9fd2e9; stroke:none;" d="M807 228L807 229L812 229L807 228z"/>
<path style="fill:#1463b4; stroke:none;" d="M272 229L272 230L643 230L608 229L532 229L272 229z"/>
<path style="fill:#037ffc; stroke:none;" d="M242 256L240 255C231.598 279.574 235 307.191 235 333L235 471L235 523C235 528.772 232.965 539.305 235.717 544.479C237.592 548.004 243.724 546.999 247 547C255.341 547.003 263.855 545.791 269.457 553.319C275.766 561.797 274.948 590.359 260 589L258 604C277.787 604 298.57 602.054 316.997 610.861C323.737 614.082 326.925 620.415 333 624L339.078 650L340 694L595 693L664.568 690.865L694.479 691.332L698.011 672L707.364 651.087L722 636C713.997 636.793 694.735 632.762 689 638L675.337 636.401L640 637L640 633L629 632L631 629L631 628L625 627L625 623C618.83 620.778 618.785 614.231 616 609C620.994 602.75 619.646 594.091 629 591C629 587.272 634.732 586.136 638 586C648.293 585.571 658.697 586 669 586L770 586C782.789 586 801 584.029 801 602L802 602L802 600L803 600C804.387 611.864 798.867 627.304 785 628L785 629L791 629L791 630L788 630L788 631L792 632L792 638C807.987 634.394 825.936 636.893 842 638L847 637L849 634L853 639L853 504C853 490.138 847.947 463.599 856 452L857 452L862 465C865.846 466.229 867.339 470.648 869.285 474C873.456 481.186 881.549 491.043 880.81 499.985C880.144 508.052 875.072 512.032 877.378 521C881.322 536.336 898.165 543.252 912 536L910 529L905 523L904 523L903 525C900.894 519.69 898.01 514.18 896.933 508.547C895.926 503.282 897.926 498.625 893 495L895 493L895 492C888.234 489.694 885.476 481.449 882.332 475.488C879.276 469.697 876.898 462.642 873.197 457.312C866.02 446.979 855.334 437.13 854 424C842.952 428.183 825.887 425 814 425C781.67 425 747.144 421.631 715.003 425.101C705.276 426.151 702.818 439.646 693 442C688.989 448.621 680.097 449.825 673 449L673 450L675 450L675 451C654.812 451 622.595 444.329 622 418C610.862 405.33 621.577 381.357 631.124 371.01C652.275 348.09 693.815 346.959 709 379L853 379C853 343.593 857.335 305.086 852.773 270C851.554 260.62 844.41 253.68 843 245C835.329 241.829 831.224 234.219 823 231.831C802.609 225.911 778.003 229 757 229C717.364 229 677.553 228.045 638 229.941C553.765 233.978 468.344 230 384 230L307 230C295.059 230 280.753 227.832 269.07 230.297C258.061 232.62 245.031 245.294 242 256z"/>
<path style="fill:#3071a3; stroke:none;" d="M808 229L808 230L819 231L808 229z"/>
<path style="fill:#76b0d2; stroke:none;" d="M819.667 230.333L820.333 230.667L819.667 230.333z"/>
<path style="fill:#1463b4; stroke:none;" d="M256 236L256 237L265 232L256 236z"/>
<path style="fill:#115cc2; stroke:none;" d="M234 548L245 548L245 547C241.726 546.946 237.375 547.204 235.717 543.702C233.294 538.582 235 529.577 235 524L235 479L235 343C235 313.255 232.872 283.777 240 255L242 256L256 237C227.114 248.992 234 290.39 234 315L234 548z"/>
<path style="fill:#3071a3; stroke:none;" d="M833 237L837 241L833 237M837 241L841 245L837 241z"/>
<path style="fill:#407fb0; stroke:none;" d="M843 247L847 253L843 247z"/>
<path style="fill:#1476cd; stroke:none;" d="M849 256L852.874 272L853 379L854 379L854 294C854 281.783 856.433 266.572 849 256z"/>
<path style="fill:#6793c6; stroke:none;" d="M233 272L233 548L234 548L234 355L234 299L233 272z"/>
<path style="fill:#407fb0; stroke:none;" d="M854 273L854 380L809 380L809 381L855 381L855 307L854 273z"/>
<path style="fill:#0951ae; stroke:none;" d="M327 287L327 288L531 288L511 287L469 287L327 287z"/>
<path style="fill:#104b9c; stroke:none;" d="M308 296L327 289C320.736 286.71 311.613 290.622 308 296z"/>
<path style="fill:#6c9bcb; stroke:none;" d="M327 288L327 289L533 289L512 288L470 288L327 288z"/>
<path style="fill:#e2e1ec; stroke:none;" d="M299 553L300 553C302.137 561.959 305.07 564.484 314 565C311.172 571.724 319.72 571.496 324 570L329 575L343 574L344 574C347.409 577.377 353.731 575.887 358.209 575.732C369.331 575.347 380.758 575.483 391.902 575.784C426.222 576.71 460.661 576 495 576C513.185 576 531.259 579.515 548 571L548 570L531 570L531 569L537 569L537 568L532 565L529 567C529.17 563.693 527.519 560.54 524 560L520 566L519 566L513 562L513 561L515 561L515 560L512 563L509 562L508 565L506 563L495 563L494 563L494 565L493 565L491 564L490 561L489 561L489 565L488 565L488 561L487 561L485 563L486 561L485 561L482 565L460 563L460 562C462.817 559.55 458.189 558.089 456 557L456 559L455 559L455 557L454 557L459 562L459 563L456 565L455 565L448 561L447 564C445.313 562.875 440.576 562.122 440 565L431 563L432 561L425 559C417.924 569.538 397.666 559.929 388 558L392 560L392 564L388 564L385 561L383 564L382 564L382 562L381 562L376 559L372 558L368 559L369 564C362.578 562.719 361.513 560.224 361 554L360 554L360 557L356 555L356 557L355 557L355 555L354 555L354 557L353 555L352 555L352 560L354 564L353 564L350 558L349 558L349 562L346 563L344 557L336 560L337 557L331 555L331 554L333 553L331 550L330 550L330 552L329 552L328 547L325 547L325 521L323 521C323.985 518.046 325.154 512.631 322 512C324.388 507.074 325.063 498.734 322 494L325 490L322 487C323.055 483.923 323.577 482.198 321 480L323 476L323 475L321 475L321 474L323 474L323 473L321 473L322 465L324 448L320 447L324 399L323 398L321 399C323.6 395.359 325.829 391.539 322 388L323 385L320 384L320 380C325.823 378.377 322.513 369.893 324 365L321 361L316 362L321 358L321 357L319 356C322.253 353.652 320.519 343.297 318 341L318 340L320 339L320 336L318 332L315 333L313 325L313 324L315 323L313 321C318.159 319.789 321.35 319.505 323 314L325 307L326 307L327 310L328 304L324 302L327 300L317 296L317 295L330 291C324.997 286.68 316.814 290.858 312 294C295.894 304.513 295 319.663 295 337L295 497C295 511.995 294.792 527.007 295 542C295.032 544.275 297.304 556.9 299 553z"/>
<path style="fill:#eeeeed; stroke:none;" d="M327 289L327 290L330 290L330 291L317 295L317 296L327 300L324 302L328 304L327 310L326 307L325 307C323.195 310.009 318.209 313.042 323 314C320.817 318.983 317.92 319.548 313 321L313 324L313 325L315 333L318 332L320 336L318 340L318 341L321 357L321 358L316 362L321 361L324 365C321.571 370.029 325.811 377.464 320 380L320 384L323 385L322 388C324.876 392.078 323.055 394.937 321 399L324 399L320 447L324 448L322 465L321 473L323 473L323 474L321 474L321 475L323 475L323 476L321 480L322 487L325 490L322 494C324.464 499.254 323.871 506.605 322 512L323 521L325 521L325 547L328 547L329 552L330 552L330 550L331 550L331 554L331 555L337 557L336 560L344 557L346 563L348 563L349 562L349 558L350 558L353 564L354 564C354.854 561.303 354.851 560.614 352 560L352 555L353 555L354 557L354 555L355 555L355 557L356 557L356 555L357 555C358.417 557.523 359.483 556.458 360 554L361 554C360.849 560.629 361.967 563.369 369 564L368 559C370.792 559.931 371.425 560.877 372 558L376 559L381 562L382 562L382 564L383 564L385 561L388 564L392 564L392 560L388 558C396.464 560.649 419.825 570.001 425 559L432 561L431 563L440 565L448 561L455 565L456 565L459 563L459 562L454 557L455 557L456 559L456 557L457 559C459.462 559.118 460.958 559.459 460 562L460 563L482 565L486 561L485 563L487 561L488 561L488 565L489 565L489 561L490 561L493 565L494 565L494 563L495 563L508 565L512 563L515 560L515 561L513 561L513 562L519 566L520 566L524 560L526 562L529 567L532 565L534 566L537 568L537 569L531 569C534.578 570.299 537.244 568.975 540.885 568.812C543.697 568.687 546.211 570.13 549.017 569.118C565.398 563.208 563 538.335 563 525L563 371C563 352.564 568.531 323.331 559.089 307C545.824 284.058 518.435 289 496 289L327 289z"/>
<path style="fill:#104b9c; stroke:none;" d="M537 289L537 290C567.253 302.115 564 329.788 564 357L564 480C564 507.718 566.039 534.484 558 561C571.251 548.667 565 514.575 565 498L565 339C565 318.195 562.553 293.134 537 289z"/>
<path style="fill:#76a2f0; stroke:none;" d="M301 303L301 305L303 303L301 303z"/>
<path style="fill:#104b9c; stroke:none;" d="M294 317L294 473C294 498.457 290.451 526.946 295 552L296 552L295 388L295 340L294 317z"/>
<path style="fill:#9ed0fc; stroke:none;" d="M563 319L563 544L564 544L564 387L564 341L563 319z"/>
<path style="fill:#0b49c7; stroke:none;" d="M293 320L293 544L294 544L294 388L294 342L293 320z"/>
<path style="fill:#035bfc; stroke:none;" d="M289 324L288 335L288 336L284 336L284 337L286 338C283.31 342.862 288.534 348.757 282 352L282 371L281 371L281 368L280 368C280.017 371.968 279.284 382.051 283 384L281.417 404.417L281 414L281 415L283 415L283 416C280.619 417.303 280.551 420.716 283 422C279.513 434.285 287.327 453.285 280 464L279.343 499.639L278 521L280 523C277.664 525.402 276.617 534.226 280 536L278 553L284 568L287 567L291 575L302 579L304 578C307.665 582.315 314.484 584.215 320 584L319 589L351.334 588.672L401.197 587.928L439 587L440 590L478 587L480 583L479 587L480 588L511 586L494 584L494 583L504 583L504 582L495 582L495 581C508.652 581 538.958 585.356 548 573C522.544 581.191 496.585 579 470 579L352 579C333.668 579 295.891 579.381 297 552C292.549 546.48 293 538.763 293 532L293 491L293 328L292 328L291 336L290 336L289 324z"/>
<path style="fill:#1476cd; stroke:none;" d="M565 328L565 408L566 408L566 354L565 328z"/>
<path style="fill:#348a9d; stroke:none;" d="M440 416L441 416L441 364C441 357.142 440.114 346.453 450 350C446.495 344.355 439.766 346.296 439.216 353.004C437.546 373.37 440 395.429 440 416z"/>
<path style="fill:#02b5f8; stroke:none;" d="M482 421L483 421L487 421L488 421C490.037 424.721 508.391 423.858 511 421C517.274 424.939 517.612 418.314 514.421 414.037C508.25 405.768 493.986 392.199 484 389C482.471 380.879 475.903 378.221 470.128 373.393C461.744 366.382 452.291 356.989 446 348C437.963 348 442 360.148 442 366L442 407C442 415.543 442.299 422.255 449 423C457.591 423.955 481.424 423.882 482 421z"/>
<path style="fill:#2ab2d1; stroke:none;" d="M446 348C450.546 357.296 461.507 366.609 469.234 373.393C475.02 378.473 481.502 381.075 484 389L509 409C500.145 392.461 480.225 378.209 467 365C460.924 358.932 454.384 350.669 446 348z"/>
<path style="fill:#fcf1c8; stroke:none;" d="M373 353C366.367 358.782 357.72 357.891 355 368C358.743 365.128 361.615 360.723 366.01 358.814C380.902 352.346 402.037 355.872 418 356L403 354L373 353z"/>
<path style="fill:#f6e380; stroke:none;" d="M422 354L408 355.468L373 356L373 357L439 357L439 356L422 354z"/>
<path style="fill:#0951ae; stroke:none;" d="M639 363C657.425 355.184 675.009 351.375 693 363.389C698.931 367.35 704.283 378.46 711.125 379.784C725.661 382.597 743.181 380 758 380L854 380L854 379L709 379C703.073 359.705 679.619 353.715 662 354.01C654.366 354.138 643.239 356.042 639 363z"/>
<path style="fill:#93bff0; stroke:none;" d="M661 355L661 356L672 356L661 355z"/>
<path style="fill:#269bcf; stroke:none;" d="M441 356L441 404C441 408.852 439.349 417.621 442.717 421.588C446.549 426.101 457.693 424 463 424L519 424L516 416C516.958 420.632 515.993 423.393 511 421C507.373 423.218 490.501 424.802 488 421L487 421L483 421L482 421C478.41 424.386 469.683 423 465 423C459.809 423 449.486 424.802 445.208 421.19C440.675 417.362 442 408.222 442 403L442 371C442 366.322 443.04 360.224 441 356z"/>
<path style="fill:#9ed0fc; stroke:none;" d="M673 450L673 449C662.149 447.704 651.306 446.088 642.134 439.495C637.598 436.235 634.812 430.717 630 428L626 422C624.271 409.067 616.339 395.298 628 384L629 382L634 374C635.59 363.285 650.443 360.297 659 357C642.259 351.446 622.386 376.739 620.259 391C614.983 426.377 638.673 450 673 450z"/>
<path style="fill:#d8deea; stroke:none;" d="M637 375C631.097 376.28 630.226 381.901 628.438 387C624.363 398.619 624.965 412.117 631 423L632 423L631 398L632 400L633 400L633 396L634 396L634 401L635 401L635 398L636 398L636 400L637 400L637 394L641 395L645 390L646 390L646 393L647 393L650 388L651 388L654 395L654 396L652 399L658 402C661.988 399.057 666.319 400.029 669 404L671 402L672 406L674 404L678 405L680 406L679 409C688.062 419.518 692.375 423 707 423L705 429C707.565 427.177 709.187 423.957 712.145 422.716C720.96 419.02 736.478 422 746 422L818 422C827.749 422 846.904 418.27 855 424C875.781 419.312 899.567 428.779 919 418L919 417L897 416L896 412C888.568 412 878.486 410.808 872 415L852 411L849 416L848 413L846 415L841 412L836 414L837 411L830 413L830 411L829 411L829 413L828 413L828 411L827 411L827 413L826 413L826 411L825 411L825 413L824 413L824 411L814 415L813 412L812 414L811 414L811 411L810 411L809 414L808 411L804 412L800 413L799 417L796 417L796 414L795 414L794 416L791 414C781.91 419.827 770.362 419 760 419C741.746 419 723.219 419.93 705 419L698 421L698 419L694 418C681.405 421.741 680.853 396.072 683.402 389.038C687.11 378.805 696.722 381.932 705 380L709 381C697.651 357.934 646.405 340.022 637 375z"/>
<path style="fill:#e4c444; stroke:none;" d="M361 362L381.027 358.148L438 359L438 357L384 357C376.25 357 366.75 355.942 361 362z"/>
<path style="fill:#557963; stroke:none;" d="M438 357C441.249 371.403 439 388.263 439 403C439 408.955 437.535 417.765 441.658 422.702C445.741 427.592 454.355 426 460 426C476.669 426 493.346 426.193 510 426L510 425L460 425C453.464 425 444.957 426.051 441.603 418.962C436.091 407.311 440 386.709 440 374C440 369.063 441.674 360.709 438 357z"/>
<path style="fill:#fdcb02; stroke:none;" d="M361 365L353 374C350.429 403.466 350.806 434.431 352.318 464C352.964 476.649 350.964 489.588 358.201 500.989C365.65 512.724 378.326 511.976 390.564 511.858C416.701 511.605 442.857 512 469 512C480.52 512 493.791 514.866 502.631 505.743C514.419 493.58 510.505 463.363 509.324 447.804C508.93 442.614 506.681 431.418 509 427L509 426C495.272 426.187 480.677 425.938 467 427.196C457.654 428.056 447.488 429.606 440.603 421.498C436.595 416.778 438 408.745 438 403L438 359C418.487 359.246 398.642 356.995 379.028 358.056C375.521 358.245 357.266 362.469 361 365z"/>
<path style="fill:#948c49; stroke:none;" d="M438 358L439 422L440 422L439 379L438 358z"/>
<path style="fill:#c6d0e9; stroke:none;" d="M634 374C630.377 375.967 628.834 377.824 629 382L628 384C615.62 392.381 623.454 411.054 626 422L630 428C638.639 436.113 645.159 443.293 656.941 447.058C676.735 453.382 702.035 444.32 707 423L688 420L679 409L680 406L678 405L672 406L671 402L669 404C668.01 398.06 658.599 399.007 658 402L652 399L654 396L654 395L651 388L650 388L647 393L646 393L646 390L645 390L641 395L637 394L637 400L636 400L636 398L635 398L635 401L634 401L634 396L633 396L633 400L632 400L631 398L632 423L631 423C626.156 411.306 620.542 381.015 637 375L646 362C640.315 363.94 633.739 367.318 634 374z"/>
<path style="fill:#cea32f; stroke:none;" d="M489 513L489 512C460.709 512 432.258 511.008 404 511.591C391.796 511.842 374.995 515.044 364.578 507.089C351.604 497.182 352.607 480.416 352.607 466C352.607 435.287 351.395 404.667 353 374L361 365C349.028 368.979 350 385.818 350 396C350 420.631 351 445.309 351 470C351 481.497 349.204 494.226 356.962 503.8C365.979 514.928 378.072 514 391 514L456 514C466.499 514 478.841 515.764 489 513z"/>
<path style="fill:#ecd094; stroke:none;" d="M353 368L352 374L353 374L355 368L353 368z"/>
<path style="fill:#eeedf1; stroke:none;" d="M855 378C852.302 384.077 832.25 381 826 381L737 381C729.001 381 720.999 380.944 713 381C710.375 381.018 706.495 382.272 705 380C697.281 381.112 687.861 378.478 683.771 387.175C680.768 393.562 681.269 424.497 694 418L698 419L698 421L705 419C724.437 421.689 746.295 419 766 419C774.17 419 784.359 419.436 791 414C791.556 416.781 794.69 415.55 795 414L796 414L799 417L800 413L804 412L808 411L809 414L810 411L811 411L811 414L812 414L813 412L814 415L824 411L824 413L825 413L825 411L826 411L826 413L827 413L827 411L828 411L828 413L829 413L829 411L830 411L830 413L837 411L836 414L841 412L846 415L847 415L847 413L848 413L849 416L852 411L872 415L896 412L897 416C904.018 414.617 911.055 417.742 917.962 416.643C931.903 414.425 925.05 390.615 917.989 384.926C900.839 371.107 872.687 388.095 855 378z"/>
<path style="fill:#6c9bcb; stroke:none;" d="M709 380L709 381L809 381L778 380L709 380z"/>
<path style="fill:#ecd094; stroke:none;" d="M349 381L349 453L351 496L352 496L350 418L349 381z"/>
<path style="fill:#b8f8fd; stroke:none;" d="M484 382L502 400C499.221 393.145 491.075 384.296 484 382z"/>
<path style="fill:#0a40bb; stroke:none;" d="M619 389L620 418L621 418L619 389z"/>
<path style="fill:#76a2f0; stroke:none;" d="M619 395L619 405L620 405L619 395z"/>
<path style="fill:#b8f8fd; stroke:none;" d="M502 400L512 411C510.969 405.688 507.412 401.099 502 400z"/>
<path style="fill:#d1aa52; stroke:none;" d="M350 412L350 485L351 485L351 436L350 412z"/>
<path style="fill:#0a40bb; stroke:none;" d="M621 419C627.477 445.094 651.623 451 675 451L675 450C659.308 450 644.697 447.78 633.207 435.882C628.298 430.799 625.808 424.023 621 419z"/>
<path style="fill:#b8d9fd; stroke:none;" d="M710 422L710 423L855 423C843.269 418.25 823.693 422 811 422L710 422z"/>
<path style="fill:#1e49a8; stroke:none;" d="M695 442C702.166 439.095 708.062 431.381 710 424L817 424C824.908 424 833.128 423.36 841 424.142C846.174 424.656 849.749 426.929 854 423L752 423C741.032 423 720.321 418.96 710.448 423.717C705.196 426.248 698.487 437.209 695 442z"/>
<path style="fill:#76b0d2; stroke:none;" d="M854 423L854 427L855 427L854 423z"/>
<path style="fill:#348a9d; stroke:none;" d="M447 424L447 425L517 425L494 424L447 424z"/>
<path style="fill:#115cc2; stroke:none;" d="M710 426L747.695 425.59L845 425C835.971 421.625 822.614 424 813 424L742 424C734.522 424 715.423 420.629 710 426z"/>
<path style="fill:#9fbeb5; stroke:none;" d="M511 427L516 426L511 427z"/>
<path style="fill:#948c49; stroke:none;" d="M447 426L447 427L501 427C486.392 421.541 462.638 426 447 426z"/>
<path style="fill:#f6e380; stroke:none;" d="M509 426C515.458 446.862 510.613 473.483 510 495L511 495C513.187 478.249 512 460.883 512 444C512 438.487 513.877 429.608 509 426z"/>
<path style="fill:#d1aa52; stroke:none;" d="M448 427L448 428L465 428L448 427z"/>
<path style="fill:#f7db59; stroke:none;" d="M507 427C513.523 447.854 509.132 474.573 508 496L509 496C514.23 480.52 511 460.215 511 444C511 438.935 512.996 428.696 507 427z"/>
<path style="fill:#3191b7; stroke:none;" d="M854 427C855.128 431.665 856.261 437.005 861 439L854 427z"/>
<path style="fill:#fcf1c8; stroke:none;" d="M512 432L512 491L513 491L513 452L512 432z"/>
<path style="fill:#3191b7; stroke:none;" d="M861 439L865 445L861 439z"/>
<path style="fill:#104b9c; stroke:none;" d="M676 449L676 450C681.896 449.657 689.468 448.076 693 443L676 449z"/>
<path style="fill:#3191b7; stroke:none;" d="M865 445L872 456L865 445z"/>
<path style="fill:#104b9c; stroke:none;" d="M856 452L861 463L862 463L856 452z"/>
<path style="fill:#89b1d3; stroke:none;" d="M854 453L854 464L855 464L856 453L854 453z"/>
<path style="fill:#1476cd; stroke:none;" d="M853 454L853 639L854 639L854 510C854 493.826 858.646 469.108 853 454z"/>
<path style="fill:#20c2ea; stroke:none;" d="M875 461C877.173 468.964 884.171 485.023 890.588 490.283C894.982 493.884 903.412 491.688 908.79 494.434C922.72 501.546 921.442 518.541 920 531L921 531C931.04 507.215 917.521 488.773 892 491C889.949 481.559 881.988 467.637 875 461z"/>
<path style="fill:#3071a3; stroke:none;" d="M854 464L854 639L855 639L855 517C855 501.645 859.363 478.349 854 464z"/>
<path style="fill:#0951ae; stroke:none;" d="M863 464L877 490L878 490C876.282 481.38 869.14 470.248 863 464z"/>
<path style="fill:#9fd2e9; stroke:none;" d="M892 490L892 491L897 491L892 490z"/>
<path style="fill:#02baf8; stroke:none;" d="M893 493L893 495C898.362 499.662 896.409 510.345 899.278 517.028C900.114 518.977 901.877 525.883 904 523L905 523L910 529L908 531C912.334 535.339 915.049 533.149 920 531C923.279 513.069 917.334 486.573 893 493z"/>
<path style="fill:#ecd094; stroke:none;" d="M353 498C354.787 505.842 360.499 510.706 368 513L368 512L353 498z"/>
<path style="fill:#104b9c; stroke:none;" d="M881 498C873.474 507.443 873.615 518.478 879 529L880 529L876.756 512.003L881 498z"/>
<path style="fill:#115cc2; stroke:none;" d="M638 511L638 512L786 512C773.421 507.299 753.444 511 740 511L638 511z"/>
<path style="fill:#f8e1b7; stroke:none;" d="M373 515L373 516L445 516C462.012 516 478.468 517.093 495 513L482 514.664L462 515L373 515z"/>
<path style="fill:#1463b4; stroke:none;" d="M628 517L638 513C633.635 511.489 630.339 513.187 628 517z"/>
<path style="fill:#5685b7; stroke:none;" d="M638 512L638 513L788 513C775.421 508.299 755.444 512 742 512L638 512z"/>
<path style="fill:#104b9c; stroke:none;" d="M788 512L788 513L795 515L788 512z"/>
<path style="fill:#eaca7a; stroke:none;" d="M369 513L369 514L409 515L484 515L484 514C446.369 514 406.303 517.87 369 513z"/>
<path style="fill:#eeeeed; stroke:none;" d="M625 542L624 539L635 548L633 551L737 551C753.346 551 771.89 553.458 788 550.73C806.099 547.664 806.476 519.557 790 513.921C776.24 509.213 755.509 513 741 513C707.112 513 671.735 510.052 638 513.126C626.154 514.206 613.146 532.722 625 542z"/>
<path style="fill:#9fd2e9; stroke:none;" d="M925 514L925 518L926 518L925 514z"/>
<path style="fill:#3071a3; stroke:none;" d="M798 518L800 523L801 523L798 518z"/>
<path style="fill:#1e49a8; stroke:none;" d="M621 523C617.895 534.414 621.775 550.452 635 553.615C646.954 556.474 660.895 553.042 673 553.001C702.333 552.901 731.667 553 761 553C776.04 553 799.418 556.984 803 537L802 537C793.606 553.601 779.175 552 763 552L672 552C660.703 552 643.278 555.254 633 550.108C619.779 543.489 624.299 533.93 621 523z"/>
<path style="fill:#115cc2; stroke:none;" d="M801 524L803 536L804 536C803.997 531.599 804.701 526.96 801 524z"/>
<path style="fill:#5685b7; stroke:none;" d="M802 529L802 537L803 537L802 529z"/>
<path style="fill:#1463b4; stroke:none;" d="M880 529C886.133 541.034 901.842 542.646 913 537L913 536C898.472 540.104 892.192 537.676 880 529z"/>
<path style="fill:#3191b7; stroke:none;" d="M912 536L913 537L920 531L912 536z"/>
<path style="fill:#b6c7e8; stroke:none;" d="M624 539C624.65 544.553 628.745 551.257 635 548L624 539z"/>
<path style="fill:#89b1d3; stroke:none;" d="M896 540L896 541L904 541L896 540z"/>
<path style="fill:#4048c3; stroke:none;" d="M245 547L245 548L266 549L245 547z"/>
<path style="fill:#d78fa9; stroke:none;" d="M182 548L182 549L234 549C219.897 543.729 197.093 548 182 548z"/>
<path style="fill:#f02f32; stroke:none;" d="M172 584L173 584L178 582L178 584L180 586L181 586C182.491 583.912 183.677 584.499 184 587L188 587L188 585L220 588L220 589C210.234 589.279 197.818 588.401 189 593L188 590L180 595L180 596L180 601C195.81 603.544 212.903 600.716 229 602.196C236.379 602.875 246.764 605.664 253.588 601.401C257.431 599 255.968 592.558 255 589L221 589L221 588C232.313 587.984 243.906 588.261 255.197 587.569C258.871 587.344 264.305 587.444 266.911 584.398C271.298 579.268 269 566.329 269 560L267 561C265.812 549.51 253.395 549.308 244 548.184C237.477 547.404 231.849 550.136 225.424 550.151C210.029 550.187 187.388 545.665 173.05 551.996C160.88 557.37 165.574 576.576 172 584z"/>
<path style="fill:#9567c7; stroke:none;" d="M246 548L246 549L258 549L246 548z"/>
<path style="fill:#76a2f0; stroke:none;" d="M562.333 548.667L562.667 549.333L562.333 548.667z"/>
<path style="fill:#a43949; stroke:none;" d="M165 584L166 584C166 575.04 163.698 562.641 169.811 555.205C174.167 549.908 182.748 550.02 189 550.001C204.005 549.954 219.009 550.174 234 550C220.156 544.827 197.809 549 183 549C177.428 549 170.472 548.104 166.717 553.238C161.911 559.809 165 576.096 165 584z"/>
<path style="fill:#bf6398; stroke:none;" d="M249 549L249 550L264 551L249 549z"/>
<path style="fill:#ba74d0; stroke:none;" d="M262 549L262 550C273.183 558.663 271.172 574.142 267 586C275.868 580.498 273.215 551.169 262 549z"/>
<path style="fill:#76a2f0; stroke:none;" d="M296.333 550.667L296.667 551.333L296.333 550.667z"/>
<path style="fill:#dc4a77; stroke:none;" d="M262 551L262 552L269 558L262 551z"/>
<path style="fill:#b8d9fd; stroke:none;" d="M635 551L635 552L786 552C773.421 547.299 753.444 551 740 551L635 551z"/>
<path style="fill:#5a58c7; stroke:none;" d="M269 552L271 584L272 584C272 574.845 274.992 559.458 269 552z"/>
<path style="fill:#0a40bb; stroke:none;" d="M296 553C300.449 577.038 324.982 579 345 579L498 579C514.705 579 552.733 583.407 558 561C552.709 565.417 548.432 570.505 542 573.442C524.171 581.581 501.092 578 482 578C447.676 578 413.251 578.701 379 577.059C361.256 576.209 341.421 580.059 324 576.569C309.606 573.685 304.513 562.975 296 553z"/>
<path style="fill:#afcafc; stroke:none;" d="M299 553C296.547 577.069 331.827 577 347 577L521 577L521 576L390.027 575.386L359 575.41L344 574L343 574L329 575L324 570C320.423 571.129 309.14 571.479 314 565C304.249 564.034 304.227 560.327 299 553z"/>
<path style="fill:#0b49c7; stroke:none;" d="M665 553L665 554L779 554L743 553L665 553z"/>
<path style="fill:#d555ae; stroke:none;" d="M267 557L267 561L269 560L269 582L270 582C270 574.539 272.373 562.759 267 557z"/>
<path style="fill:#c0858a; stroke:none;" d="M164 558L164 581L165 581L164 558z"/>
<path style="fill:#c34854; stroke:none;" d="M166 577C165.952 579.407 165.162 583.243 166.91 585.221C170.242 588.988 181.332 587.522 184 584L181 586L180 586L178 584L178 582L173 584L172 584L168 577L166 577z"/>
<path style="fill:#2d61b1; stroke:none;" d="M383 577L383 578L442 578L422 577L383 577M443 577L443 578L529 578L502 577L443 577z"/>
<path style="fill:#b71f11; stroke:none;" d="M188 585L189 588L195 588L195 589L188 590L188 592L189 593L220 589L220 588L188 585z"/>
<path style="fill:#104b9c; stroke:none;" d="M628 589L628 590C644.725 585.881 661.706 587 679 587L754 587C770.674 587 788.595 583.366 800 598C801.215 581.231 771.776 586 762 586L671 586C657.392 586 640.575 583.222 628 589z"/>
<path style="fill:#941619; stroke:none;" d="M168 587L168 588L177 588L177 602L178 602L179 589L186 592L195 589C188.348 585.198 175.318 585.267 168 587z"/>
<path style="fill:#8736a1; stroke:none;" d="M259 587L259 588L267 587L259 587z"/>
<path style="fill:#4048c3; stroke:none;" d="M257 604L260 589L269 587C256.789 585.505 257.372 594.685 257 604z"/>
<path style="fill:#b71f11; stroke:none;" d="M221 588L221 589L256 590C255.144 585.972 250.494 587.277 247 587.333C238.33 587.474 229.642 588 221 588z"/>
<path style="fill:#bb3a7f; stroke:none;" d="M257 587L256 595L257 595L259 587L257 587z"/>
<path style="fill:#93bff0; stroke:none;" d="M634 587L634 588L786 588C773.168 583.205 752.717 587 739 587L634 587z"/>
<path style="fill:#76a2f0; stroke:none;" d="M632.667 588.333L633.333 588.667L632.667 588.333z"/>
<path style="fill:#edecf0; stroke:none;" d="M626 594L629 599C620.59 605.727 630.125 622.953 639.027 624.706C651.154 627.094 665.641 625 678 625L758 625C769.5 625 790.213 629.169 798.145 618.871C805.663 609.113 801.856 591.538 789 588.462C777.157 585.627 762.167 588 750 588L668 588C654.902 588 635.95 584.068 626 594z"/>
<path style="fill:#a43949; stroke:none;" d="M179 589L177 603L232 603L232 602L180 601L180 596L180 595L186 590L179 589z"/>
<path style="fill:#0b49c7; stroke:none;" d="M627 622C619.753 609.082 619.608 603.803 627 591C615.976 597.111 615.772 616.007 627 622z"/>
<path style="fill:#afcafc; stroke:none;" d="M788 626L788 625L651 625C646.576 625 641.213 625.769 637.115 623.774C628.989 619.82 622.456 606.608 629 599L626 594L629 591C614.295 599.165 620.774 624.085 637 625.855C653.607 627.666 671.29 626 688 626L788 626z"/>
<path style="fill:#8736a1; stroke:none;" d="M257 592L257 601L258 601L257 592z"/>
<path style="fill:#d555ae; stroke:none;" d="M256 595C255.547 599.309 254.316 601.136 250 602L250 603L256 604L256 595z"/>
<path style="fill:#092d90; stroke:none;" d="M802 600C801.999 611.301 799.524 622.027 787 625.333C773.241 628.965 755.214 626 741 626L669 626C654.629 626 640.403 627.658 627 622C632.364 631.42 656.492 627 666 627C694.658 627 723.361 627.383 752 627.01C763.672 626.858 776.472 628.594 788 626.733C799.116 624.939 807.639 610.248 802 600z"/>
<path style="fill:#cdf0fd; stroke:none;" d="M176 602L142 603L142 604L168 604L176 602z"/>
<path style="fill:#035bfc; stroke:none;" d="M618 602L616 609C618.143 614.383 618.583 621.629 625 623L625 627L631 628L631 629L629 632L640 633L640 637L669.786 636.849L689 638L722 636C722 643.019 736.412 636.853 741 638C746.117 639.279 748.309 638.564 753 637C756.518 635.827 770.033 640.835 771 636L772 636C772.586 638.93 774.502 638.488 775 636L776 636C777.15 641.366 790.329 639 795 639C815.025 639 834.923 640 855 640L855 639L849 634L847 637C843.742 635.914 842.565 635.177 842 638C827.112 635.333 806.673 634.008 792 638L792 632L788 631L788 630L791 630L791 629C753.453 627.034 715.637 628 678 628C664.681 628 642.331 631.96 630.364 625.27C620.032 619.494 621.444 611.214 618 602z"/>
<path style="fill:#5585dd; stroke:none;" d="M620 602L620 610L621 610L620 602z"/>
<path style="fill:#543a5d; stroke:none;" d="M177 603L177 604L241 604L220 603L177 603z"/>
<path style="fill:#5685b7; stroke:none;" d="M178 604L178 605L258 605C252.035 600.829 241.82 603.805 234.997 603.975C216.023 604.449 196.981 604 178 604z"/>
<path style="fill:#1f7ab6; stroke:none;" d="M97 808L98 808C97.7221 759.738 97 711.337 97 663C97 648.797 99.6192 621.335 117 617C130.722 600.828 159.186 606 178 606L178 604C155.441 604 129.157 599.666 111.115 616.333C94.6493 631.545 96 652.495 96 673C96 717.11 91.292 764.28 97 808z"/>
<path style="fill:#02baf8; stroke:none;" d="M137 611L135 611L132 615L129 619L125 624L125 625L128 626C122.945 632.066 119.306 646.661 126 648L125 652L124 652L124 649L123 649C121.713 652.709 120.66 655.483 125 657L125 658L123 659L126 660L128 676C121.692 677.415 123.796 684.056 128 687L128 712L126 710L125 710L128 727L125 728L127 740L128 737L129 737L129 740L132 739L135 743L132 744L132 745L135 745L135 746L131 748L131 746L128 748L133 761L131 761L133 764L128 764L128 768L134 771L135 782L128 780L128 783L136 786L137 793L138 793L138 791L139 791L139 799L140 799L140 792L141 792L144 800L144 796C152.244 794.37 149.695 789.057 146 784L156 784L156 787L153 788L153 789L159 790L160 780L168 779L167 776C170.777 774.877 172.994 769.996 177 773L177 768L192 767L191 760L192 760C193.76 767.906 198.597 760.482 199 756L202 757L202 755L207 760L209 747L212 748L217 742L219 747L220 741L222 741L222 746L223 746L226 745L227 745L227 742L228 742L228 744L229 744L236 737L237 740L238 740L240 729L251 729L254 728L254 726L256 730L272 724L272 728L274 726L275 726L276 729L277 725L280 725L280 728L287 726L293 721L292 728L293 728C300.47 719.379 314.787 723.3 325 721C323.698 718.395 317.607 708.652 323 710L320 693L319.185 679L317 649C314.973 648.751 313.171 647.671 315 646L315 645L314 643L309 638L311 638L311 637L309 637L302 625L300 627L300 611L301 611L301 615L302 615L302 609L306 609C296.894 601.083 281.266 604 270 604C238.95 604 205.946 602.885 175 605.83C165.348 606.749 155.653 605.5 146.001 606.718C142.075 607.213 137.717 606.382 137 611z"/>
<path style="fill:#02a5f5; stroke:none;" d="M117 617C111.603 617.797 109.848 621.937 106.601 625.886C97.4266 637.045 97 650.016 97 664L97 768C97 787.837 94.7953 808.274 105 826L106 826L102 809L103 809L103 814L104 814C104.461 808.078 103.116 803.212 108 799L108 806L111 811L112 811L112 808L113 808L135 825L136 825L136 823L137 823L138 826L142 824L148 824L149 824L150 826L151 826L157 825L158 825L159 823C165.759 826.322 184.627 824.533 192.144 823.283C196.091 822.626 203.528 820.351 207 822L208 822L208 820L209 820L209 822L210 822L210 820L211 820L211 822L212 822L212 820L213 820L213 822L214 822L214 820L215 820L215 822L216 822L216 820C218.792 820.931 219.425 821.877 220 819C222.444 820.429 223.361 820.348 225 818L226 818C227.058 823.289 232.627 817.562 236 817C239.358 816.44 246.232 817.841 247 814L248 814L249 816C252.48 807.47 253.51 796.617 250 788L253 789L255 786L256 782L256 781L253 770L256 770L257 765L260 765L266 752L267 751L272 750L271 747L271 746L289 744L293 721L287 726L280 728L277 725L276 729L275 726L274 726L272 728L272 724L270 726L256 730C256.273 727.583 253.91 724.701 254 728L251 729L240 729L238 740L237 740L236 737C232.15 738.524 229.889 739.824 229 744L228 744L228 742L227 742L227 745L226 745C224.665 743.029 223.929 744.063 223 746L222 746L222 741L220 741L219 747L217 742L212 748L209 747L207 760L202 755L202 757L199 756C198.33 760.128 194.307 767.144 192 760L191 760L192 767L177 768L177 773C172.915 771.147 170.396 773.654 167 776L168 779L160 780L159 790L157 788L153 789L153 788L156 787L156 784L146 784C148.753 789.318 151.525 793.477 144 796L144 800L141 792L140 792L140 799L139 799L139 791L138 791L138 793L137 793L136 786L134 788L128 783L128 780L135 782L134 771L128 768L128 764L133 764L131 761L133 761L128 748L131 746L131 748L135 746L135 745L132 745L132 744L135 743L132 739L129 737L128 737L127 740L125 728L128 727L125 710L126 710L128 712L128 687C124.478 683.426 121.868 677.975 128 676L126 660L125 658L125 657C121.662 654.748 122.234 652.671 123 649L124 649L124 652L125 652L126 648C120.313 641.359 125.015 632.988 128 626L125 625L125 624L129 619L132 615L135 611L137 611C137.897 606.227 144.042 607.013 148 607C138.716 603.531 122.108 608.467 117 617z"/>
<path style="fill:#0dd0fc; stroke:none;" d="M303 607L303 608L306 608L306 609L302 609L302 615L301 615L301 611L300 611C300.013 613.993 297.557 628.105 302 625L311 637L311 638L309 638L309 639L314 643L315 645L315 646L313 647L317 649L320 693L323 710C318.131 710.812 323.249 718.806 325 721L311 722L311 723L339 722C339 695.858 344.254 663.104 336.54 638C331.952 623.069 319.21 608.648 303 607z"/>
<path style="fill:#1476cd; stroke:none;" d="M313 609L331 627L332 627L333 624L313 609z"/>
<path style="fill:#0a40bb; stroke:none;" d="M745 627L745 628L779 628C784.407 628 789.829 628.892 794 625C778.543 629.155 760.943 627 745 627z"/>
<path style="fill:#0334ca; stroke:none;" d="M642 627L642 628L744 628L712 627L642 627z"/>
<path style="fill:#2459e0; stroke:none;" d="M771 636L751 638L751 639C756.245 639 774.782 641.683 776 636L775 636L771 636M714 645L742 639C735.548 636.318 716.726 637.483 714 645z"/>
<path style="fill:#4048c3; stroke:none;" d="M736 639L736 640L817 640L791 639L736 639z"/>
<path style="fill:#ba74d0; stroke:none;" d="M720 642L720 643C752.967 641.274 787.16 639.135 820 642C812.222 637.698 799.683 640 791 640C767.705 640 742.924 637.549 720 642z"/>
<path style="fill:#9567c7; stroke:none;" d="M817 640L817 641L854 641L817 640z"/>
<path style="fill:#e7afc3; stroke:none;" d="M854 640L854 641L890 641L854 640z"/>
<path style="fill:#dc4a77; stroke:none;" d="M713 651L729 647L729 646L726 646L726 645L734 647L735 647L756 643C745.339 639.059 717.219 638.913 713 651z"/>
<path style="fill:#d555ae; stroke:none;" d="M746 641L746 642L785 642C774.185 637.958 757.545 641 746 641z"/>
<path style="fill:#f63e3e; stroke:none;" d="M746 646L746 647L749 647L742 656C742.812 671.017 737.653 686.934 739.333 702.333C741.411 721.379 741.306 740.657 740.5 760C740.057 770.633 742.39 781.423 740.333 792C737.501 806.568 741.531 817.324 751.667 826.333C753.377 827.853 750.751 827.903 750 828L750 829C754.266 829.711 760.338 831.312 761 828L762 828L764 831L765 831L766 829L767 832L768 832L768 828L774 832C778.608 829.12 786.132 826.394 791 830L792 830L799 827L800 830L802 826L803 826C805.08 829.1 806.887 829.066 809 826L810 826L811 829L817 827L817 829L818 829L818 827C822.906 830.605 835.625 831.995 841 829L842 829L843 831L844 831L845 829L846 829L847 831L848 831L857 828L858 828L866 830L865 826C867.963 827.792 870.996 829.316 874 827L875 827L875 829L876 829C878.394 825.649 886.276 829.957 889 832L893 826L895 834L897 830L902 833L909 833L908 837L914 836C914.984 827.739 924.848 820.82 925.917 811C929.871 774.651 926 735.143 926 698C926 682.034 927.883 664.186 914.917 652.389C899.827 638.661 880.537 642.871 862 643C857.303 643.033 842.795 646.249 840 642L839 642C835.67 645.141 824.171 643.744 821 641C813.386 645.377 800.149 641.858 791.547 641.441C776.44 640.708 760.241 641.776 746 646z"/>
<path style="fill:#d555ae; stroke:none;" d="M806 641L806 642L820 643L806 641z"/>
<path style="fill:#e94697; stroke:none;" d="M821 642L821 643C825.21 643.071 838.161 646.256 839 641L821 642z"/>
<path style="fill:#dc4a77; stroke:none;" d="M840 644L881 643C873.923 639.086 846.077 637.973 840 644z"/>
<path style="fill:#c34854; stroke:none;" d="M878 641L878 642C896.9 642 914.65 646.493 923.235 665.305C928.315 676.439 926 692.08 926 704L926 785C931.174 771.157 927 748.809 927 734C927 704.931 937.718 654.555 902 642.775C894.299 640.235 885.993 641 878 641z"/>
<path style="fill:#6793c6; stroke:none;" d="M96 643L96 647L97 647L96 643z"/>
<path style="fill:#f02f32; stroke:none;" d="M735 647L734 647L726 645L726 646L729 646L729 647C714.032 647.992 702.581 655.394 702 672L703 672L703 669L706 672L704 671L704 672L711 673L707 672L716 668C717.102 670.077 717.96 671.805 720 670L721 670L723 672L725 669L726 672L727 669L728 669L728 672C732.368 672.269 734.06 674.784 733 679L735 696L734 696L730 679L730 690L730 691L732 691L732 692L730 692L730 693L732 693L733 697L730 701L735 725L735 726L736 736C731.44 736.977 734.061 740.62 734.278 744.139C734.681 750.684 737.523 764.949 734 770L734 771L736 772L736 773L733 807L733 808L733 816L742 828L743 835L745 834C748.536 845.25 774.822 843 784 843L870 843C879.484 843 899.274 846.421 906.667 839.5C908.537 837.749 907.512 834.984 909 833L902 833L897 830L895 834L893 826L889 832C887.203 829.754 876.834 824.832 876 829L875 829L875 827L874 827L865 826L866 830L858 828L857 828L848 831L847 831L846 829L845 829L844 831L843 831L842 829L841 829C834.923 831.498 823.625 830.378 818 827L818 829L817 829L817 827L811 829L810 826L809 826C806.52 828.475 805.345 828.685 803 826L802 826L800 830L799 827L792 830L791 830C788.147 825.244 776.712 828.61 774 832L768 828L768 832L767 832C766.421 830.09 766.015 828.666 765 831L764 831L762 828L761 828L750 829L750 828L753 828L752 825C735.88 822.41 740.686 794.077 741.049 783C741.982 754.498 739.704 726.076 739.667 697.667C739.649 683.925 742.971 669.678 742 656C745.404 655.066 752.41 648.023 746 647L746 646L750 644L735 647z"/>
<path style="fill:#5a58c7; stroke:none;" d="M700 665L701 665L716 645C707.137 647.447 701.715 656.371 700 665z"/>
<path style="fill:#bb3a7f; stroke:none;" d="M700 694L701 694C701 675.107 703.022 663.754 714 648C696.944 656.825 700 678.077 700 694z"/>
<path style="fill:#cdf0fd; stroke:none;" d="M95 651L95 795L96 795L96 695C96 682.103 99.5118 663.073 95 651z"/>
<path style="fill:#0298f2; stroke:none;" d="M339 652L339 695L340 695C340 682.363 343.42 663.827 339 652z"/>
<path style="fill:#084fd8; stroke:none;" d="M699 665C698.571 670.306 698.723 687.754 694.489 690.867C688.658 695.154 670.231 690.556 663 690.764C633.463 691.615 603.815 693 574 693L574 694L662 694C670.99 694 688.607 697.408 696.588 693.155C700.964 690.824 700.58 669.319 699 665z"/>
<path style="fill:#e1222b; stroke:none;" d="M707 672L711 673L704 671L706 672L703 669C703 694.661 701 721.36 701 748C701 767.196 702.859 791.271 701 808C700.094 816.154 705.811 826.414 710 832C711.936 834.582 713.836 831.656 713 835L719 840L761 842L761 841C755.023 840.385 749.149 838.458 745 834L743 835L742 828L733 816C734.84 812.72 735.343 811.054 733 808L733 807L736 773L736 772L734 771L734 770C739.292 761.878 729.087 741.65 736 736L735 726L735 725L730 701L733 697L730 693L730 692L732 692L732 691L730 691L730 690L732 690L730 679L734 696L735 696L733 679C734.651 673.451 730.962 672.793 728 669L727 669L726 672L725 669L723 672L721 670L720 670L716 668L707 672z"/>
<path style="fill:#8736a1; stroke:none;" d="M699 672L699 693L700 693L699 672z"/>
<path style="fill:#cc2d4a; stroke:none;" d="M701 672C701 714.61 700 757.322 700 800C700 817.826 702.787 838.774 724 843L724 842L721 839L719 840L713 835C711.082 827.306 703.696 822.14 702.054 814C697.984 793.817 701 770.533 701 750C701 725.139 697.521 696.29 703 672L701 672z"/>
<path style="fill:#e7afc3; stroke:none;" d="M927 672L927 677L928 677L927 672z"/>
<path style="fill:#cd4714; stroke:none;" d="M819 677C832.35 679.158 834.637 687.25 835 700C843.497 701.115 849.095 702.508 855 709C855.187 697.44 844.496 702.231 838.51 697.054C832.58 691.925 835.703 666.606 819 677z"/>
<path style="fill:#b71f11; stroke:none;" d="M856 708L855 708C852.537 724.827 841.679 741.257 835.467 757C833.349 762.368 831.802 770.653 825.536 772.793C819.654 774.803 815.296 767.316 813.476 763C808.254 750.618 802.637 738.409 797.485 726C795.591 721.439 791.859 716.155 792.423 711.001C793.697 699.376 806.912 704.448 811.85 698.283C813.877 695.753 812.967 691.035 813.724 688C814.784 683.751 817.564 680.525 820 677C809.443 679.62 813.96 689.418 809.533 696.352C806.433 701.206 797.844 698.546 793.702 702.647C783.299 712.947 798.566 734.558 802.983 745C806.858 754.161 812.819 781.155 827.929 774.242C837.42 769.9 843.167 745.286 846.947 736C850.716 726.742 855.854 718.234 856 708z"/>
<path style="fill:#fbe21f; stroke:none;" d="M794 711L797 710L796 716L804.167 730L817.5 758L822 770L820 773C832.648 774.738 833.206 759.195 837.147 750C841.719 739.333 847.687 729.586 852.209 719C854.108 714.554 855.774 709.495 852.267 705.342C848.339 700.692 840.607 700.49 835 700C834.883 691.405 829.063 666.51 816.511 681.189C812.286 686.13 815.295 694.018 811.283 698.342C805.466 704.611 798.062 701.197 794 711z"/>
<path style="fill:#bd6e71; stroke:none;" d="M927 677L927 792L928 792L928 713L927 677z"/>
<path style="fill:#0541ed; stroke:none;" d="M440 694L440 695L443 695L442.202 717.941L449.232 735L449 770C494.004 775.876 542.594 771 588 771C599.079 771 610.001 771.621 621.001 771.972C624.173 772.074 630.583 773.104 632.85 770.283C635.247 767.298 633.665 760.644 633.671 756.997C633.688 744.801 634.129 732.167 633.028 720C632.62 715.487 628.568 707.351 632 704L632 703L623 703L622 706L617 709L608 705L608 707L601 707L600 704C593.142 704.644 581.595 708.474 577 701L576 701L576 704L575 704L573 703L573 701L561 704L560 704C559.015 701.315 552.547 697.489 552 702L551 702L551 699L550 699L550 702L549 702L549 700L548 700L547 703L544 703C543.421 701.09 543.015 699.666 542 702L541 702L541 700L540 700L534 702L533 702C531.049 699.273 526.788 698.213 524 700L522 700L521 700L511 697L511 696L545 695L512 694L440 694z"/>
<path style="fill:#05216c; stroke:none;" d="M697 693C679.345 697.803 655.365 695 637 695L637 696C652.32 696 667.658 697.94 683 696.94C686.208 696.731 697.668 697.051 697 693z"/>
<path style="fill:#a43949; stroke:none;" d="M698 693L699 733L699 810L700 810L700 723C700 715.85 703.159 698.208 698 693z"/>
<path style="fill:#092d90; stroke:none;" d="M340 694L340 698L341 698C346.636 694.147 356.375 696 363 696L415 696C420.346 696 433.233 693.66 437.283 697.717C440.979 701.42 438.997 717.726 439 723L444 724L447.684 737L448 772L449 772L448.527 732L442.205 716.973L443 695C410.502 689.1 373.04 694 340 694z"/>
<path style="fill:#032fbe; stroke:none;" d="M511 696L511 697L521 700L522 700L524 700L533 702L534 702L540 700L541 700L541 702L542 702L544 703L548 700L549 700L549 702L550 702L550 699L551 699L551 702L552 702L552 699L560 704L561 704L573 701L573 703L575 704L576 704L576 701L577 701L579 702C583.602 708.294 593.559 705.165 600 704L601 707L608 707L608 705L617 709L622 706L623 703L625 705L632 703L632 704L629 704C634.111 724.642 636.814 751.77 633 773C637.232 768.464 636 761.853 636 756L636 716C636 711.171 633.839 699.277 638.412 696.15C643.552 692.635 655.933 695 662 695C649.421 690.299 629.444 694 616 694C581.667 694 544.912 690.78 511 696z"/>
<path style="fill:#4d1221; stroke:none;" d="M698 694L698 804L699 804L699 728L698 694z"/>
<path style="fill:#41abb5; stroke:none;" d="M339 695L339 722L312 723L312 724L340 724L339 695z"/>
<path style="fill:#142847; stroke:none;" d="M697 695C678.058 700.156 656.361 696 637 696L637 772L697 772L690 779L690 777L688 780L683 778L685 783L676 781L675 781L673 784L673 785L676 790L678 788L678 795L677 795L676 793L675 796L672 795L672 799L670 797C668.412 801.075 667.505 807.152 662 804L661 804L657 812L658 812L658 809L659 809L661 816L657 816L656 830L652 827L651 827L650 829L650 827L649 827C648.347 828.96 648 829.554 648 827L647 827L645 833L642 833L643 837C583.573 843.721 522.595 840.203 463 840.001C447.964 839.95 433.072 841.046 418 840.999C412.083 840.981 405.131 838.732 401 844L721 844C714.313 834.673 704.668 831.4 701.07 819C693.77 793.838 696.779 760.911 697.682 734.885C698.088 723.194 701.062 706.056 697 695z"/>
<path style="fill:#0c1d3b; stroke:none;" d="M340 724C371.595 719.149 406.902 720.795 439 723C438.999 718.051 441.296 700.382 437.283 697.15C433.254 693.905 421.952 696 417 696L363 696C357.917 696 345.944 693.792 341.845 697.15C337.122 701.019 340 718.288 340 724z"/>
<path style="fill:#05277a; stroke:none;" d="M636 696L636 768L637 768L637 719L636 696z"/>
<path style="fill:#c2721d; stroke:none;" d="M804 700L804 701L808 701L804 700z"/>
<path style="fill:#f8882e; stroke:none;" d="M820 772L802.425 731L794.532 712L800 702C794.6 704.041 791.44 707.971 792.387 714C794.626 728.255 804.874 743.808 810.676 757C813.158 762.644 814.346 768.764 820 772z"/>
<path style="fill:#efa609; stroke:none;" d="M796 710L793 711C797.377 726.256 805.391 742.619 812.514 756.804C815.072 761.897 816.313 768.847 822 771L804.685 730.005L796 716L796 710z"/>
<path style="fill:#110e05; stroke:none;" d="M344 722L344 723C376.982 723 411.287 720.729 444 725C437.125 719.926 423.202 722 415 722C391.582 722 367.273 720.104 344 722z"/>
<path style="fill:#269bcf; stroke:none;" d="M293 728L312 724C305.523 721.528 296.872 721.525 293 728z"/>
<path style="fill:#c8bf8d; stroke:none;" d="M298 727L298 728L340 725C330.838 720.389 307.131 722.846 298 727z"/>
<path style="fill:#6c6229; stroke:none;" d="M344 723L344 724L414 724L391 723L344 723z"/>
<path style="fill:#f7de39; stroke:none;" d="M320 725L320 727C350.619 726.494 380.987 726.953 411.636 727.639C419.407 727.813 437.349 724.815 442.241 732.178C444.896 736.176 443.922 746.227 443.99 751.001C444.254 769.563 440.599 785.058 438 803C444.382 793.408 444.992 781.204 445 770C445.007 760.312 450.8 737.699 444.047 729.811C437.848 722.572 419.565 725 411 725L320 725z"/>
<path style="fill:#f6e380; stroke:none;" d="M357 724L357 725C384.147 725 418.265 719.621 444 729L443 725L357 724z"/>
<path style="fill:#948c49; stroke:none;" d="M434 724L434 725L441 725L434 724z"/>
<path style="fill:#9fbeb5; stroke:none;" d="M293 764L294 764C294 752.578 290.22 732.752 302 726C297.101 724.63 293.931 728.33 293.235 733.028C291.761 742.981 293 753.942 293 764z"/>
<path style="fill:#f6b503; stroke:none;" d="M352 841L361.027 842.808L385 844L384 842L389 840L387 838L394 834L394 836L395 836L395 834L396 834L396 836L397 836L398 832L401 832L400 830L401 829L406 832L407 832L414 829L412 820L408 825L407 825C406.653 823.038 405.845 819.547 404 822L403 822L397 819L398 816L396 819L395 819L393 811L392 811L392 815L391 815L390 813L388 815L385 814C383.576 809.775 372.34 800.491 368 800L364 792L367 791L365 787L363 789L357 783C361.365 776.288 355.243 771.657 352.904 765.578C350.802 760.117 350.838 753.728 349 748L354 751C355.433 745.132 356.003 741.168 351 737L352 742L351 743L348 742L348 734L344 732L354 733C347.174 722.679 321.79 725.015 311 726.001C306.912 726.374 299.881 726.127 297.658 730.298C294.251 736.689 296 747.013 296 754C296 776.236 296.865 806.657 314.315 823.098C319.743 828.213 326.937 833.632 334 836.207C339.844 838.338 346.494 838.104 352 841z"/>
<path style="fill:#fdcb02; stroke:none;" d="M344 725L354 733L344 732L348 734L348 742L351 743L352 742L351 737C355.383 741.907 354.917 744.878 354 751L349 748C349.096 751.564 351.043 751.723 352.167 754.667C353.525 758.224 350.765 763.167 352.667 767.167C355.164 772.42 361.564 776.915 357 783L363 789L365 787L367 791L364 792L368 800L385 814L388 815L389 815L391 815L392 815L392 811L393 811L395 819L396 819L398 816L397 819L403 822L404 822L405 820L407 825L408 825L412 820L415 828L427 824L432 818C434.212 807.841 440.083 798.318 442.426 788C444.977 776.765 444.01 764.442 444 753C443.995 747.49 445.808 734.688 441.585 730.551C436.027 725.106 420.703 727.243 413.354 727.306C390.681 727.503 366.481 727.935 344 725z"/>
<path style="fill:#d8deea; stroke:none;" d="M442 726L446 735L447 735C446.711 730.811 446.119 727.662 442 726z"/>
<path style="fill:#348a9d; stroke:none;" d="M293 728L292 752L293 752L293 728z"/>
<path style="fill:#f7db59; stroke:none;" d="M846 729L831 766C836.63 761.279 847.491 736.215 846 729z"/>
<path style="fill:#d1aa52; stroke:none;" d="M296 731C292.4 750.827 295.312 772.282 298 792L299 792L296 758L296 731z"/>
<path style="fill:#065ee7; stroke:none;" d="M291 735C291 741.863 292.98 752.177 289 758L288 752L288 757L288 758L285 764L284 765L282 764L283 767L278 767L277 768L280 777L277 778L279 780L278 782L274 780L274 784C278.403 788.213 275.097 791.855 274 797L275 797L277 795L274 800L274 801L275 807L277 807L277 814L273 815L272 820L263 821L262 827L261 827L261 824L260 824L259 831L258 831L257 829L256 832L252 829L245 835L244 835L244 832L243 832L242 835L241 835L240 832L232 833L231 836L222 834L216 838L215 838C211.063 834.961 193.982 836.972 190 840L189 840L183 840L183 838L145 841L145 842C166.475 842 188.544 839.028 210 840.306C215.036 840.605 229.584 843.606 231 837L234 838L237 838L240 836L241 839L257 838L261 838L262 838L265 837L266 836L265 834L269 835L278 834L279 831L281 833L282 833L287 831L285 829L288 829L289 829L289 826L290 826C292.313 827.582 293.299 825.163 294 823L295 823L296 825L296 819L297 819L297 821L298 821L301 816L299 808L298 808L298 813L297 813L297 807L295 807L292.01 769L291 735z"/>
<path style="fill:#c8bf8d; stroke:none;" d="M294 735C294 761.552 288.457 801.926 312 821C305.911 807.041 298.021 795.727 296.189 780C294.596 766.32 298.748 747.706 294 735z"/>
<path style="fill:#f6e380; stroke:none;" d="M446 735L444 787L445 787C445.811 771.517 451.572 749.91 446 735z"/>
<path style="fill:#878a91; stroke:none;" d="M447 735L447 763L448 763L447 735z"/>
<path style="fill:#2055cf; stroke:none;" d="M449 735L449 767L450 767L449 735z"/>
<path style="fill:#0277fa; stroke:none;" d="M290 741L289 744L271 746L271 747L273 748L272 750L267 751L266 752L260 765L257 765L256 770L255 771L253 770L256 781L256 782L255 786L253 789L250 788L251.056 807.694L248 814L247 814C243 817.154 230.495 820.219 226 818L225 818L220 819L216 822L215 822L215 820L214 820L214 822L213 822L213 820L212 820L212 822L211 822L211 820L210 820L210 822L209 822L209 820L208 820L208 822L207 822L207 820C195.578 823.891 183.187 823.333 171.333 823.333C168.018 823.333 159.574 822.524 158 825L157 825L156 823L151 826L150 826L149 824L148 824L142 824L138 826L137 823L135 825L121.389 818L113 808L112 808L112 811L111 811L108 806L108 799C102.177 802.312 104.219 808.166 104 814L103 814L103 809L102 809C102.088 840.65 133.322 841.314 156.99 840.288C165.402 839.924 175.155 841.285 183 838L183 840L189 840L190 840C194.839 837.616 210.371 834.951 215 838L216 838L222 834L231 836L232 833L240 832L241 835L242 835L243 832L244 832L244 835L245 835L252 829L256 832L257 829L258 831L259 831L260 824L261 824L261 827L262 827L263 821L265 823L272 820L273 815L275 817L277 814L277 807L275 807L274 801L274 800L277 795L275 797L274 797C275.552 792.244 279.088 787.476 274 784L274 780L278 782L279 780L279 779L277 779L277 778L280 777L277 768L278 767L283 767L282 764L285 764L288 758L288 757L288 752L289 758C292.48 754.486 291.645 745.401 290 741z"/>
<path style="fill:#163983; stroke:none;" d="M292 752L293 781L294 781L292 752z"/>
<path style="fill:#543a5d; stroke:none;" d="M447 763L447 771L448 771L447 763z"/>
<path style="fill:#878a91; stroke:none;" d="M293 764L293 773L294 773L293 764z"/>
<path style="fill:#223d60; stroke:none;" d="M636 768C630.758 777.998 601.118 773 591 773L496 773C480.647 773 463.002 775.384 448 772C448 775.709 448.893 778.723 446 778C449.291 796.333 434.492 826.426 416 832L407 841L564 840L623.063 838.162L643 837L642 833L645 833L647 827L648 827L649 829L649 827L650 827C650.506 829.529 650.494 829.529 651 827L652 827L653 830L656 830L657 816L661 816L659 809L658 809L658 812L657 812L661 804L662 804C666.978 808.743 668.943 800.665 670 797L672 799L672 795L675 796L676 793L677 795L678 795L678 788L676 790L673 785L673 784L675 781L676 781C678.508 784.135 681.291 783.951 685 783L683 778L688 780L690 777L690 779C694 777.601 695.835 776.132 697 772L637 772L636 768z"/>
<path style="fill:#2055cf; stroke:none;" d="M449 770L449 772L616 772L601 771L568 771L449 770z"/>
<path style="fill:#110e05; stroke:none;" d="M447 771L447 779L448 779L447 771z"/>
<path style="fill:#1e49a8; stroke:none;" d="M449 772L449 773L500 773C486.15 767.824 463.82 772 449 772M501 772L501 773L580 773L555 772L501 772M581 772L581 773L632 773C618.15 767.824 595.82 772 581 772z"/>
<path style="fill:#948c49; stroke:none;" d="M446 773L446 778L447 778L446 773z"/>
<path style="fill:#291b23; stroke:none;" d="M446 780L442 802L443 802C444.618 795.141 448.58 786.956 446 780z"/>
<path style="fill:#0b49c7; stroke:none;" d="M293 781L295 807L297 807L297 813L298 813L298 808L299 808L301 816L298 821L297 821L297 819L296 819L296 825L295 823L294 823L290 826L289 826L289 829L288 829C287.377 825.884 284.085 828.668 287 831L282 833L281 833L279 831L278 834C275.039 833.013 269.65 831.749 269 835L265 834L265 837L262 838L261 838C259.369 835.281 257.531 835.346 257 838C252.684 835.779 245.332 837.021 241 839L240 836L237 838L231 837C225.698 844.228 212.626 839.78 205 840.351C178.23 842.358 150.691 842.328 124 840L124 841C150.471 845.86 179.148 843 206 843C239.132 843 275.543 845.872 308 839L308 837L310 838L311 837L311 832L312 832L312 835L313 835C314.986 824.052 306.149 818.177 301.549 809C296.987 799.898 296.594 790.157 293 781z"/>
<path style="fill:#223d60; stroke:none;" d="M294 781C294.336 805.526 310.753 832.634 335 840L335 839C321.554 830.543 309.427 821.811 302.344 807C298.328 798.602 297.466 789.392 294 781z"/>
<path style="fill:#948c49; stroke:none;" d="M445 781L445 784L446 784L445 781z"/>
<path style="fill:#f8e59f; stroke:none;" d="M442 792L432 816C437.319 811.168 443.728 799.377 442 792z"/>
<path style="fill:#d1aa52; stroke:none;" d="M299 793L300 799L301 799L299 793z"/>
<path style="fill:#a43949; stroke:none;" d="M927 798C923.565 813.23 922.292 821.704 913 835C924.609 829.133 931.609 810.334 927 798z"/>
<path style="fill:#110e05; stroke:none;" d="M441 800L418 832C427.14 827.793 443.985 811.486 441 800z"/>
<path style="fill:#f8e59f; stroke:none;" d="M430 817L426 823L430 817z"/>
<path style="fill:#c8bf8d; stroke:none;" d="M312 822L316 825L312 822z"/>
<path style="fill:#ecd094; stroke:none;" d="M400 839L400 840C409.721 838.812 419.333 831.739 425 824L400 839z"/>
<path style="fill:#d1aa52; stroke:none;" d="M316 825C321.331 833.623 334.153 840.371 344 842L344 841L316 825z"/>
<path style="fill:#092d90; stroke:none;" d="M314 827L313 835L312 835L312 832L311 832L311 837L310 838L308 837L308 839C251.554 843.995 194.78 843 138 843L138 844L272 844L337 844L336 839C327.261 838.317 321.002 831.562 314 827z"/>
<path style="fill:#efaf31; stroke:none;" d="M414 827L407 832L406 832L401 829L401 832L400 833L398 832L397 836L395 834L395 836L394 836L394 834L387 838L387 841L389 840C395.421 845.97 413.64 833.213 418 828L414 827z"/>
<path style="fill:#407fb0; stroke:none;" d="M110 831C113.629 835.654 118.208 838.738 124 840L110 831z"/>
<path style="fill:#110e05; stroke:none;" d="M415 833L397 842L397 843C402.12 842.451 414.488 839.099 415 833z"/>
<path style="fill:#813c26; stroke:none;" d="M907 839L912 837L907 839z"/>
<path style="fill:#c2721d; stroke:none;" d="M338 837C343.189 842.671 349.79 842.72 357 843L356 840L352 841L338 837z"/>
<path style="fill:#941619; stroke:none;" d="M721 839C724.154 843.491 728.943 842.998 734 843C744.383 843.004 754.632 844 765 844L895 844L876 843L837 843L765 842.903L721 839z"/>
<path style="fill:#1e212e; stroke:none;" d="M336 840L344 843L344 842L336 840z"/>
<path style="fill:#eaca7a; stroke:none;" d="M384 842L384 843L400 841L384 842z"/>
<path style="fill:#6c6229; stroke:none;" d="M400.667 840.333L401.333 840.667L400.667 840.333z"/>
<path style="fill:#7d8cb1; stroke:none;" d="M125.667 841.333L126.333 841.667L125.667 841.333z"/>
<path style="fill:#6c6229; stroke:none;" d="M397.667 841.333L398.333 841.667L397.667 841.333z"/>
<path style="fill:#7d8cb1; stroke:none;" d="M128.667 842.333L129.333 842.667L128.667 842.333z"/>
<path style="fill:#335a99; stroke:none;" d="M130 842L130 843L138 844L130 842z"/>
<path style="fill:#813c26; stroke:none;" d="M337 843L337 844L376 844C365.008 839.892 348.602 842.671 337 843z"/>
<path style="fill:#674a4d; stroke:none;" d="M390 843L390 844L401 844L390 843z"/>
<path style="fill:#813c26; stroke:none;" d="M895 842L895 843L899 843L895 842z"/>
<path style="fill:#021a53; stroke:none;" d="M291 843L291 844L334 844C322.173 839.58 303.637 843 291 843z"/>
<path style="fill:#813c26; stroke:none;" d="M377 843L377 844L380 844L377 843z"/>
<path style="fill:#948c49; stroke:none;" d="M386 843L386 844L390 844L386 843z"/>
<path style="fill:#4d1221; stroke:none;" d="M721 843L721 844L752 844L721 843z"/>
<path style="fill:#a9b3cc; stroke:none;" d="M136 844L136 845L160 845L136 844z"/>
<path style="fill:#7d8cb1; stroke:none;" d="M160 844L160 845L321 845C307.662 840.016 286.263 844 272 844L160 844z"/>
<path style="fill:#a9b3cc; stroke:none;" d="M321 844L321 845L331 845L321 844z"/>
<path style="fill:#d5bcb6; stroke:none;" d="M347 844L347 845L394 845C381.161 840.202 360.729 844 347 844z"/>
<path style="fill:#dfcbcb; stroke:none;" d="M723 844L723 845L890 845C876.156 839.826 853.809 844 839 844L723 844z"/>
</svg>
